<svg xmlns="http://www.w3.org/2000/svg" width="490" height="200"><g fill="none" fill-rule="evenodd"><path fill="#F8F8F8" fill-rule="nonzero" d="M6 0h478a6 6 0 0 1 6 6v194H0V6a6 6 0 0 1 6-6z"/><g stroke="#D7D7D7" stroke-width="2" transform="translate(4 32)"><path d="M315 37c-6.627 0-12-5.373-12-12s5.373-12 12-12c2.643 0 5.087.855 7.07 2.303-.046-.428-.07-.863-.07-1.303 0-6.627 5.373-12 12-12 6.447 0 11.707 5.085 11.988 11.463A10.965 10.965 0 0 1 354 10c6.075 0 11 4.925 11 11 0 .814-.088 1.608-.256 2.372A7 7 0 1 1 367 37h-52z"/><circle cx="102" cy="18" r="18"/><path stroke-linecap="round" d="M0 96l42-55 99 120m183 1l82-108 74 90m-204 17l40-53 24 30m-224-8l29-38 58 70"/><path d="M17 75l13 16 12-16 13 16 13-18m314 12l12 15 12.5-15 12.5 15 12-17"/></g></g></svg>